<svg xmlns="http://www.w3.org/2000/svg" xmlns:xlink="http://www.w3.org/1999/xlink" width="500" zoomAndPan="magnify" viewBox="0 0 375 374.999991" height="500" preserveAspectRatio="xMidYMid meet" version="1.0"><defs><g/></defs><g fill="#8c52ff" fill-opacity="1"><g transform="translate(46.207033, 214.699995)"><g><path d="M 20.238281 -17.597656 C 19.558594 -22.636719 13.160156 -23.320312 10.960938 -18.519531 C 10.757812 -18.117188 10.640625 -17.679688 10.558594 -17.238281 L 10.558594 -22 C 9.359375 -21.398438 8.039062 -20.957031 6.71875 -20.796875 C 3.078125 -20.320312 1.519531 -22.277344 1.519531 -22.277344 L 1.519531 -3.320312 C 1.519531 -1.238281 1.238281 -0.359375 0.800781 0 L 11.277344 0 C 10.800781 -0.359375 10.558594 -1.238281 10.558594 -3.320312 L 10.558594 -16.519531 C 10.558594 -17.519531 11.320312 -18.359375 12.320312 -18.480469 C 13.878906 -18.640625 14.558594 -15.960938 14.480469 -14.757812 Z M 20.238281 -17.597656 "/></g></g></g><g fill="#8c52ff" fill-opacity="1"><g transform="translate(67.244946, 214.699995)"><g><path d="M 13.480469 -22.757812 L 12.160156 -22.757812 C 5.878906 -22.757812 0.800781 -17.640625 0.800781 -11.359375 C 0.800781 -5.078125 5.878906 0 12.160156 0 L 13.480469 0 C 19.757812 0 24.878906 -5.078125 24.878906 -11.359375 C 24.878906 -17.640625 19.757812 -22.757812 13.480469 -22.757812 Z M 15.839844 -3.121094 C 15.839844 -1.480469 14.480469 -0.121094 12.839844 -0.121094 C 11.160156 -0.121094 9.839844 -1.480469 9.839844 -3.121094 L 9.839844 -19.597656 C 9.839844 -21.277344 11.160156 -22.597656 12.839844 -22.597656 C 14.480469 -22.597656 15.839844 -21.277344 15.839844 -19.597656 Z M 15.839844 -3.121094 "/></g></g></g><g fill="#8c52ff" fill-opacity="1"><g transform="translate(92.922397, 214.699995)"><g><path d="M 14.398438 -0.121094 L 11.800781 -0.121094 L 27.519531 -22.757812 L 3.160156 -22.757812 L 2.558594 -15.398438 C 5.078125 -19.839844 9.800781 -22.597656 14.917969 -22.597656 L 16.558594 -22.597656 L 0.800781 0 L 26.199219 0 L 26.757812 -7.359375 C 24.238281 -2.878906 19.519531 -0.121094 14.398438 -0.121094 Z M 14.398438 -0.121094 "/></g></g></g><g fill="#8c52ff" fill-opacity="1"><g transform="translate(121.239587, 214.699995)"><g><path d="M 22 1.078125 L 10.960938 2.601562 C 5.960938 3.28125 4.199219 -0.800781 6.480469 -2.761719 C 8.558594 -0.960938 11.199219 0 13.917969 0 L 15 0 C 21.359375 0 26.679688 -5.199219 26.597656 -11.558594 C 26.519531 -16 23.839844 -20 19.757812 -21.796875 C 21.757812 -22.597656 29.039062 -28.839844 26.199219 -33.878906 C 24 -37.757812 17.957031 -36.316406 17.078125 -31.957031 C 16.917969 -31 16.957031 -30.039062 17.277344 -29.117188 C 17.117188 -29.839844 17.398438 -30.519531 18 -30.917969 C 18.359375 -31.199219 20.4375 -31.796875 21.839844 -29.957031 C 24.039062 -27.117188 21.4375 -22.597656 19.519531 -21.917969 C 18.160156 -22.480469 16.71875 -22.757812 15.238281 -22.757812 L 14.117188 -22.757812 C 7.800781 -22.757812 2.480469 -17.597656 2.519531 -11.277344 C 2.558594 -8.039062 4 -4.917969 6.441406 -2.800781 C 1.71875 0.238281 -0.238281 4.28125 1.359375 7.679688 C 2.71875 10.597656 5.839844 12.277344 9.039062 11.800781 C 10.757812 11.558594 17.878906 10.320312 22.679688 9.4375 C 23.636719 9.28125 24.597656 9.640625 25.199219 10.359375 C 25.839844 11.121094 26.039062 12.121094 25.71875 13.039062 C 25.71875 13.039062 28.796875 10.839844 28.796875 7 C 28.796875 5.28125 28.039062 3.640625 26.757812 2.480469 C 25.4375 1.359375 23.71875 0.839844 22 1.078125 Z M 11.558594 -19.597656 C 11.558594 -21.277344 12.917969 -22.597656 14.558594 -22.597656 C 16.238281 -22.597656 17.558594 -21.277344 17.558594 -19.597656 L 17.558594 -3.121094 C 17.558594 -1.480469 16.238281 -0.121094 14.558594 -0.121094 C 12.917969 -0.121094 11.558594 -1.480469 11.558594 -3.121094 Z M 11.558594 -19.597656 "/></g></g></g><g fill="#8c52ff" fill-opacity="1"><g transform="translate(150.83665, 214.699995)"><g><path d="M 26.558594 -3.757812 L 25.117188 -9.078125 L 23.4375 -15.160156 C 21.480469 -22.398438 12.238281 -24.558594 7.28125 -18.917969 C 9.160156 -21.039062 12.679688 -20.199219 13.4375 -17.4375 L 14.519531 -13.597656 L 13.960938 -13.597656 C 13.960938 -13.597656 0.441406 -13.757812 0.839844 -6.121094 C 1.28125 1.761719 12.480469 2.960938 15.960938 -4.121094 C 16.277344 -4.757812 16.480469 -5.441406 16.558594 -6.160156 L 16.917969 -4.839844 C 17.800781 -1.480469 21.117188 0.558594 24.476562 -0.121094 C 26.277344 -0.519531 27.796875 -1.640625 28.597656 -3.28125 C 28.160156 -2.441406 26.796875 -2.839844 26.558594 -3.757812 Z M 13.917969 -3.199219 C 13.800781 -3.160156 13.679688 -3.160156 13.558594 -3.160156 C 11.597656 -3.160156 9.960938 -4.679688 9.839844 -6.597656 C 9.640625 -9.679688 11.640625 -12.71875 14.519531 -13.480469 L 16.320312 -6.960938 C 16.558594 -6.121094 16.4375 -5.238281 15.960938 -4.519531 C 15.519531 -3.800781 14.757812 -3.320312 13.917969 -3.199219 Z M 13.917969 -3.199219 "/></g></g></g><g fill="#8c52ff" fill-opacity="1"><g transform="translate(180.233727, 214.699995)"><g><path d="M 26.558594 -3.757812 L 25.117188 -9.078125 L 23.4375 -15.160156 C 21.480469 -22.398438 12.238281 -24.558594 7.28125 -18.917969 C 9.160156 -21.039062 12.679688 -20.199219 13.4375 -17.4375 L 14.519531 -13.597656 L 13.960938 -13.597656 C 13.960938 -13.597656 0.441406 -13.757812 0.839844 -6.121094 C 1.28125 1.761719 12.480469 2.960938 15.960938 -4.121094 C 16.277344 -4.757812 16.480469 -5.441406 16.558594 -6.160156 L 16.917969 -4.839844 C 17.800781 -1.480469 21.117188 0.558594 24.476562 -0.121094 C 26.277344 -0.519531 27.796875 -1.640625 28.597656 -3.28125 C 28.160156 -2.441406 26.796875 -2.839844 26.558594 -3.757812 Z M 13.917969 -3.199219 C 13.800781 -3.160156 13.679688 -3.160156 13.558594 -3.160156 C 11.597656 -3.160156 9.960938 -4.679688 9.839844 -6.597656 C 9.640625 -9.679688 11.640625 -12.71875 14.519531 -13.480469 L 16.320312 -6.960938 C 16.558594 -6.121094 16.4375 -5.238281 15.960938 -4.519531 C 15.519531 -3.800781 14.757812 -3.320312 13.917969 -3.199219 Z M 13.917969 -3.199219 "/></g></g></g><g fill="#8c52ff" fill-opacity="1"><g transform="translate(209.630805, 214.699995)"><g><path d="M 20.238281 -17.597656 C 19.558594 -22.636719 13.160156 -23.320312 10.960938 -18.519531 C 10.757812 -18.117188 10.640625 -17.679688 10.558594 -17.238281 L 10.558594 -22 C 9.359375 -21.398438 8.039062 -20.957031 6.71875 -20.796875 C 3.078125 -20.320312 1.519531 -22.277344 1.519531 -22.277344 L 1.519531 -3.320312 C 1.519531 -1.238281 1.238281 -0.359375 0.800781 0 L 11.277344 0 C 10.800781 -0.359375 10.558594 -1.238281 10.558594 -3.320312 L 10.558594 -16.519531 C 10.558594 -17.519531 11.320312 -18.359375 12.320312 -18.480469 C 13.878906 -18.640625 14.558594 -15.960938 14.480469 -14.757812 Z M 20.238281 -17.597656 "/></g></g></g><g fill="#8c52ff" fill-opacity="1"><g transform="translate(230.668717, 214.699995)"><g><path d="M 6.238281 -2.761719 C 6.238281 -4.238281 5.078125 -5.441406 3.601562 -5.441406 C 2.121094 -5.441406 0.921875 -4.238281 0.921875 -2.761719 C 0.921875 -1.320312 2.121094 -0.121094 3.601562 -0.121094 C 5.078125 -0.121094 6.238281 -1.320312 6.238281 -2.761719 Z M 6.238281 -2.761719 "/></g></g></g><g fill="#8c52ff" fill-opacity="1"><g transform="translate(237.947995, 214.699995)"><g><path d="M 23.320312 -7.039062 C 21.558594 -5.28125 19.039062 -4.480469 16.558594 -4.839844 C 12.4375 -5.441406 9.558594 -9.160156 9.558594 -13.359375 C 9.558594 -23 17.71875 -24.757812 18.757812 -19.238281 C 19.480469 -15.640625 16.957031 -10.359375 16.957031 -10.359375 L 23.597656 -19.917969 C 22 -20.839844 20.277344 -21.558594 18.480469 -22.039062 C 16.480469 -22.558594 15.71875 -22.796875 12.320312 -22.757812 C 6.121094 -22.597656 0.800781 -17.558594 0.800781 -11.359375 C 0.800781 -5.078125 5.878906 0 12.160156 0 C 15.359375 -0.0390625 18.4375 -1.238281 20.878906 -3.320312 C 22.480469 -4.679688 23.679688 -6.398438 24.359375 -8.359375 C 24.078125 -7.878906 23.71875 -7.441406 23.320312 -7.039062 Z M 23.320312 -7.039062 "/></g></g></g><g fill="#8c52ff" fill-opacity="1"><g transform="translate(263.105494, 214.699995)"><g><path d="M 13.480469 -22.757812 L 12.160156 -22.757812 C 5.878906 -22.757812 0.800781 -17.640625 0.800781 -11.359375 C 0.800781 -5.078125 5.878906 0 12.160156 0 L 13.480469 0 C 19.757812 0 24.878906 -5.078125 24.878906 -11.359375 C 24.878906 -17.640625 19.757812 -22.757812 13.480469 -22.757812 Z M 15.839844 -3.121094 C 15.839844 -1.480469 14.480469 -0.121094 12.839844 -0.121094 C 11.160156 -0.121094 9.839844 -1.480469 9.839844 -3.121094 L 9.839844 -19.597656 C 9.839844 -21.277344 11.160156 -22.597656 12.839844 -22.597656 C 14.480469 -22.597656 15.839844 -21.277344 15.839844 -19.597656 Z M 15.839844 -3.121094 "/></g></g></g><g fill="#8c52ff" fill-opacity="1"><g transform="translate(288.782945, 214.699995)"><g><path d="M 30.476562 0 L 40.957031 0 C 40.515625 -0.359375 40.238281 -1.238281 40.238281 -3.320312 L 40.238281 -15.320312 C 40.238281 -21.4375 33.277344 -24.917969 28.398438 -21.238281 C 27.160156 -20.320312 26.316406 -18.917969 26.078125 -17.359375 L 25.917969 -16.199219 C 25.277344 -21.757812 18.757812 -24.71875 14.117188 -21.238281 C 12.878906 -20.320312 12.039062 -18.917969 11.800781 -17.359375 L 11.679688 -16.519531 C 11.597656 -20.4375 8.597656 -22.757812 5.238281 -22.757812 C 3.558594 -22.757812 1.917969 -22.039062 0.800781 -20.796875 C 1.480469 -21.480469 2.640625 -20.757812 2.640625 -19.796875 L 2.640625 -3.320312 C 2.640625 -1.238281 2.398438 -0.359375 1.917969 0 L 12.398438 0 C 11.960938 -0.359375 11.679688 -1.238281 11.679688 -3.320312 L 11.679688 -14.878906 C 11.679688 -15.757812 11.757812 -16.597656 11.878906 -17.480469 C 12.277344 -20.4375 16.71875 -20.398438 16.917969 -17.398438 C 16.917969 -17.320312 16.917969 -17.238281 16.917969 -17.160156 L 16.917969 -3.320312 C 16.917969 -1.238281 16.679688 -0.359375 16.199219 0 L 26.679688 0 C 26.238281 -0.359375 25.957031 -1.238281 25.957031 -3.320312 L 25.957031 -14.878906 C 25.957031 -15.757812 26.039062 -16.597656 26.160156 -17.480469 C 26.558594 -20.4375 31 -20.398438 31.199219 -17.398438 C 31.199219 -17.320312 31.199219 -17.238281 31.199219 -17.160156 L 31.199219 -3.320312 C 31.199219 -1.238281 30.957031 -0.359375 30.476562 0 Z M 30.476562 0 "/></g></g></g></svg>